#!OML:ASF E:/inclinewalkrobotboard/Project1/Captureday1/Session1/subject1.ASF
:FULLY-SPECIFIED
:DEGREES
51
root 0 0 0 3.932430625863713 -5.285241023455303 -3.6340900259284465
lowerback 6.9157059093263245 0.46579436964152476 0.2778028488201165
upperback -1.7200473837282306 0.7583564312030135 1.8594796918772722
thorax -5.637368033286581 0.41703975428248696 1.7451277362939464
lowerneck -15.437192384770922 -2.3757625501955486 -1.592979257701151
upperneck 20.502406267818067 -3.1777528320049604 1.2691518691719255
head 9.123052484353039 -1.4969029999230208 0.25955384103966794
rclavicle -5.754986446026539E-16 -5.577966469352932E-16
rhumerus -15.561611773142095 -19.72923267039688 -69.3995806639492
rradius 27.26213286323165
rwrist 10.285377821952702
rhand -12.123050189967968 17.955085944327834
rfingers 7.125019999999954
rthumb 13.90520557827056 -11.087876348651145
lclavicle -6.536575277582713E-16 -3.1681082236249875E-16
lhumerus -29.682397630384685 1.429721687505646 78.16843321259779
lradius 28.743091639103646
lwrist 3.211281385720751
lhand -23.926102994628707 23.295771695043754
lfingers 7.125020000000041
lthumb 2.5038054525449027 52.989216367383605
rfemur -4.731969244297829 -5.57945494024672 16.455579914702
rtibia 39.13644519650503
rfoot -8.629179006353995 -7.860492693146439
rtoes 5.9403779386753826
lfemur -15.225905256865055 -0.2294169145501872 -21.01161302981567
ltibia 34.62813270746737
lfoot -9.539003802437055 0.056327085055844606
ltoes -1.6342137924344282
52
root 0 0 0 2.3977206507981386 -4.346502734730128 -3.1946881181786626
lowerback 7.6483860413753755 0.40566137742862196 0.3641535186338063
upperback -1.2070549094869687 0.7045240678518472 1.8429734256671364
thorax -5.493529667761765 0.3829601972842068 1.661567267438572
lowerneck -15.726625236883752 -2.5872326812857303 -1.723032066251133
upperneck 20.356068516026042 -3.4000203884885933 1.0848428513969957
head 9.114851249643445 -1.627705822801742 0.20243363872321252
rclavicle -5.841920155241797E-16 -5.545716263329922E-16
rhumerus -16.144146891690454 -19.67207055742678 -69.76626706869484
rradius 27.25182830828326
rwrist 10.010191298155913
rhand -12.376703787068703 18.163769569265384
rfingers 7.125019999999959
rthumb 13.662335999198975 -10.910810384150249
lclavicle -6.482601771288085E-16 -3.117256626439549E-16
lhumerus -29.800628594894597 1.394411284466667 78.36904874719197
lradius 28.720705046265863
lwrist 3.3145192559684737
lhand -24.04616758940897 23.283416226491408
lfingers 7.125020000000043
lthumb 2.3872155791224436 52.990571714967444
rfemur -5.192203249617663 -5.041238855772946 16.988342923166897
rtibia 39.13067539920381
rfoot -8.572781776745225 -7.789350256431888
rtoes 5.844298953099361
lfemur -15.022854716059392 -0.28744832471528525 -20.967439466158183
ltibia 34.56395066815187
lfoot -9.469198905303278 -0.04055469482277019
ltoes -1.715414273606351
53
root 0 0 0 1.1285404656166662 -3.5814374605089583 -2.834043931026895
lowerback 8.257018155636803 0.357437240954686 0.43696613892780434
upperback -0.7808590141974108 0.6616477451373628 1.8278613812921443
thorax -5.37447268492706 0.35574761964629176 1.5902540000655914
lowerneck -15.968046212509467 -2.7600602648114227 -1.8291672122148381
upperneck 20.231531998260365 -3.581511738432041 0.9329226234194299
head 9.10707871623957 -1.7345120194685797 0.15539796339288892
rclavicle -5.917129529992876E-16 -5.464367333700973E-16
rhumerus -16.685578899798053 -19.61497300992466 -70.12764220993009
rradius 27.239464216105638
rwrist 9.754700758825777
rhand -12.617200492407203 18.36155128391838
rfingers 7.125019999999965
rthumb 13.430634323715015 -10.741900725497974
lclavicle -6.413075554565096E-16 -3.093772523085693E-16
lhumerus -29.825741756880035 1.3804548634774179 78.42146492873044
lradius 28.720409353618265
lwrist 3.344978125955759
lhand -24.06383588316272 23.276327968167298
lfingers 7.125020000000043
lthumb 2.3700220261473888 52.98518498856773
rfemur -5.493404014619514 -4.694097902562476 17.32880217671473
rtibia 39.13907236150892
rfoot -8.534173350515871 -7.742422030686999
rtoes 5.786071467738825
lfemur -14.910430734545763 -0.3179668533326474 -20.94284832621578
ltibia 34.53623193888486
lfoot -9.427484186759113 -0.0953211275575363
ltoes -1.7627874014020843
54
root 0 0 0 0.19302259739072625 -3.021562683917942 -2.5701755637967025
lowerback 8.70671754380307 0.3224149122507378 0.49154074175423546
upperback -0.46591664757526274 0.6309327033788797 1.8159757813942374
thorax -5.286233917365825 0.33612769302668966 1.5365163027979098
lowerneck -16.146722176540457 -2.8870105654128952 -1.90694392430223
upperneck 20.139580471974522 -3.7149919296144995 0.8207112359936288
head 9.101385900178485 -1.8132234959063123 0.12059595964440639
rclavicle -5.984981583080458E-16 -5.40578093646616E-16
rhumerus -17.241959827089502 -19.55627091830124 -70.50198550989492
rradius 27.22676689818456
rwrist 9.490677885333877
rhand -12.867148102055568 18.56659742346644
rfingers 7.12501999999997
rthumb 13.189755365104018 -10.566675588625419
lclavicle -6.342087795322733E-16 -3.094915549784256E-16
lhumerus -29.792058109518898 1.379606978554019 78.37968504407087
lradius 28.734757865528035
lwrist 3.3309781508476703
lhand -24.017801179926995 23.272586027229426
lfingers 7.125020000000043
lthumb 2.414599371592743 52.9758408661154
rfemur -5.636811379486531 -4.534230671692697 17.487556704564042
rtibia 39.14908915557089
rfoot -8.517125839014522 -7.7198650406185365
rtoes 5.761057984978908
lfemur -14.83099231579888 -0.33983376350866834 -20.925956146831073
ltibia 34.51623737504202
lfoot -9.398771105349514 -0.13379708884177788
ltoes -1.7975801685857213
55
root 0 0 0 -0.8889659131460448 -2.4196397304918307 -2.287479445646257
lowerback 9.239428602776325 0.289594622679601 0.5648688320993798
upperback -0.09700476166189453 0.6036778947183096 1.7964859215692783
thorax -5.18738950357532 0.3176639525050021 1.4641030985318322
lowerneck -16.362374976061236 -3.0244696241518336 -1.9903063540800914
upperneck 20.016142564318844 -3.8602886607576465 0.6945738010889522
head 9.089083725429802 -1.89689860539213 0.08132052526905276
rclavicle -6.111867043161239E-16 -5.310022233805107E-16
rhumerus -18.431976106503598 -19.431940098248212 -71.29412675156726
rradius 27.198112814057612
rwrist 8.929581475088538
rhand -13.397312177173632 19.00106922576451
rfingers 7.1250199999999815
rthumb 12.679587985614996 -10.194898793047484
lclavicle -6.30743998506959E-16 -3.039667356233274E-16
lhumerus -29.853539796149526 1.356080507454684 78.48722710240946
lradius 28.72451582859611
lwrist 3.3869870691716564
lhand -24.075982038631196 23.267375958164276
lfingers 7.125020000000044
lthumb 2.3577855932373204 52.97609844685551
rfemur -6.358940743147585 -3.670409555771357 18.329331371551433
rtibia 39.13356064755206
rfoot -8.421060284360292 -7.605573247549264
rtoes 5.603133530468121
lfemur -14.414010829835384 -0.45879594929232503 -20.83308262983393
ltibia 34.37820343558227
lfoot -9.255594224375905 -0.3368811568236296
ltoes -1.9639835729805348
56
root 0 0 0 -1.1497598805415095 -2.2793878992925514 -2.222888523700586
lowerback 9.368500898497604 0.28239857311384275 0.5839870784299457
upperback -0.007676428773521593 0.5988104843397071 1.7903891961239018
thorax -5.1625013978373975 0.31393819716899596 1.4447737781184973
lowerneck -16.415795468823596 -3.0575354823954015 -2.0094357917313466
upperneck 19.98689062898805 -3.8952283371744323 0.6631083847437966
head 9.086493186435114 -1.9169614276966684 0.07142792582322277
rclavicle -6.188003892203069E-16 -5.248419954322831E-16
rhumerus -19.01023102151236 -19.371771273947743 -71.6781228810316
rradius 27.18304024341566
rwrist 8.662037489318129
rhand -13.65569448884142 19.212795330962898
rfingers 7.125019999999987
rthumb 12.43195480435472 -10.014551789614925
lclavicle -6.257149986159491E-16 -3.0772711095320183E-16
lhumerus -29.75607410232317 1.3709059713879315 78.33530109169243
lradius 28.753535584617723
lwrist 3.3214118284679834
lhand -23.95843050917953 23.2692114252285
lfingers 7.125020000000042
lthumb 2.4706821503700347 52.96449795151474
rfemur -6.216291736828339 -3.846901771622015 18.161238056377485
rtibia 39.142402687737714
rfoot -8.44166530168621 -7.627887282249187
rtoes 5.637295922304293
lfemur -14.398435638719867 -0.4639681645937941 -20.82908740857509
ltibia 34.37569376196497
lfoot -9.247738392934204 -0.3443636867953437
ltoes -1.971570007064436
57
root 0 0 0 -1.2802485528668939 -2.22284824186314 -2.19700606381603
lowerback 9.436560953699054 0.28106271626710677 0.5966144546456174
upperback 0.038481790327278276 0.5992021527690986 1.7854207451562303
thorax -5.150403414223481 0.31344609626732023 1.4317233502660578
lowerneck -16.445608076516404 -3.0716266040139284 -2.0168389074077915
upperneck 19.96754027039698 -3.90985741453692 0.6478072507977433
head 9.083862788822737 -1.9247935159205074 0.0666152945539562
rclavicle -6.2454003866865225E-16 -5.171042536355579E-16
rhumerus -19.4948554887563 -19.319436991448157 -72.00932591798751
rradius 27.16873292722796
rwrist 8.4383536867089
rhand -13.873770177857446 19.39139456902317
rfingers 7.125019999999991
rthumb 12.222201413069063 -9.861631376237913
lclavicle -6.210770062137867E-16 -3.117222109765306E-16
lhumerus -29.636773576608597 1.393153177804039 78.14628130279615
lradius 28.785990840942144
lwrist 3.234758878125838
lhand -23.818796721560577 23.273635617399716
lfingers 7.12502000000004
lthumb 2.605316385190317 52.95272509336492
rfemur -6.002307341485036 -4.106832024728504 17.90650523007612
rtibia 39.15729838158942
rfoot -8.469643687739456 -7.6607038325723735
rtoes 5.687959606273708
lfemur -14.459271624673917 -0.4458349490756799 -20.841968330975668
ltibia 34.40230694354236
lfoot -9.26449225812543 -0.31595696333956624
ltoes -1.949633261687703
